<?xml version="1.0" encoding="UTF-8"?>
<svg id="svg3710" xmlns="http://www.w3.org/2000/svg" xmlns:svg="http://www.w3.org/2000/svg" xmlns:sodipodi="http://sodipodi.sourceforge.net/DTD/sodipodi-0.dtd" xmlns:rdf="http://www.w3.org/1999/02/22-rdf-syntax-ns#" xmlns:inkscape="http://www.inkscape.org/namespaces/inkscape" xmlns:dc="http://purl.org/dc/elements/1.1/" xmlns:cc="http://web.resource.org/cc/" version="1.1" viewBox="0 0 675 500">
  <!-- Generator: Adobe Illustrator 29.3.1, SVG Export Plug-In . SVG Version: 2.1.0 Build 151)  -->
  <defs>
    <style>
      .st0 {
        fill: #acf479;
      }

      .st0, .st1, .st2, .st3, .st4, .st5, .st6 {
        stroke: #000;
      }

      .st0, .st1, .st2, .st4, .st5, .st6 {
        stroke-width: 2px;
      }

      .st0, .st2, .st4, .st5, .st6 {
        fill-rule: evenodd;
      }

      .st1 {
        fill: none;
      }

      .st2 {
        fill: #dadada;
      }

      .st3 {
        stroke-linecap: round;
        stroke-linejoin: round;
        stroke-width: 2.4px;
      }

      .st3, .st5 {
        fill: #f4d279;
      }

      .st7, .st8, .st9, .st10, .st11 {
        isolation: isolate;
      }

      .st7, .st10 {
        font-family: LMRoman10-Regular, 'Latin Modern Roman';
      }

      .st7, .st11 {
        font-size: 28px;
      }

      .st9 {
        font-size: 18px;
      }

      .st9, .st11 {
        font-family: LMMono10-Regular, 'Latin Modern Mono';
      }

      .st10 {
        font-size: 48px;
      }

      .st4 {
        fill: #79cbf4;
      }

      .st6 {
        fill: #ebf479;
      }
    </style>
  </defs>
  <sodipodi:namedview id="base" width="675px" height="500px" bordercolor="#666666" borderopacity="1.0" gridtolerance="10000" guidetolerance="10" inkscape:current-layer="layer1" inkscape:cx="323.42742" inkscape:cy="258.21117" inkscape:document-units="px" inkscape:grid-points="true" inkscape:pageopacity="0.0" inkscape:pageshadow="2" inkscape:window-height="660" inkscape:window-width="945" inkscape:window-x="0" inkscape:window-y="31" inkscape:zoom="1" objecttolerance="10" pagecolor="#ffffff" showgrid="true"/>
  <g id="text3896" class="st8" sodipodi:linespacing="125%">
    <text class="st10" transform="translate(250.6 51.6)"><tspan x="0" y="0">RAID 5</tspan></text>
  </g>
  <path id="path3875" class="st2" d="M24,269.9l-1,138.8c0,27,115,27,115,0l1-138.8" sodipodi:nodetypes="cccc"/>
  <g id="g3871">
    <path id="path3753" class="st4" d="M24,230.7h0v40c0,27,115,27,115,0v-40" sodipodi:nodetypes="cc"/>
    <g id="text3755" class="st8" sodipodi:linespacing="100%">
      <text class="st11" transform="translate(65.7 280.1)"><tspan x="0" y="0">D</tspan></text>
      <text class="st9" transform="translate(88.2 280.1)"><tspan x="0" y="0">p</tspan></text>
    </g>
  </g>
  <g id="g3668">
    <path id="path3761" class="st0" d="M24,190.1h0v40c0,27,115,27,115,0v-40" sodipodi:nodetypes="cc"/>
    <g id="text3763" class="st8" sodipodi:linespacing="100%">
      <text class="st11" transform="translate(63.1 239.6)"><tspan x="0" y="0">C1</tspan></text>
    </g>
  </g>
  <g id="g3839">
    <path id="path3745" class="st6" d="M24,150.7h0v40c0,27,115,27,115,0v-40" sodipodi:nodetypes="cc"/>
    <g id="text3747" class="st8" sodipodi:linespacing="100%">
      <text class="st11" transform="translate(63.5 200.1)"><tspan x="0" y="0">B1</tspan></text>
    </g>
  </g>
  <g id="g3738">
    <path id="path3722" class="st5" d="M24,110.1h0v40c0,27,115,27,115,0v-40" sodipodi:nodetypes="cc"/>
    <g id="text3724" class="st8" sodipodi:linespacing="100%">
      <text class="st11" transform="translate(63.7 159.6)"><tspan x="0" y="0">A1</tspan></text>
    </g>
  </g>
  <path id="path3718" class="st3" d="M139,110.1c0,11-25.7,20-57.5,20s-57.5-9-57.5-20h0c0-11,25.7-20,57.5-20s57.5,9,57.5,20h0Z" sodipodi:cx="87.5" sodipodi:cy="73.75" sodipodi:rx="57.5" sodipodi:ry="28.75" sodipodi:type="arc"/>
  <g id="text3156" class="st8" sodipodi:linespacing="125%">
    <text class="st7" transform="translate(35.8 472.8)"><tspan x="0" y="0">Disk 0</tspan></text>
  </g>
  <path id="path3892" class="st2" d="M190,269.9l-1,138.8c0,27,115,27,115,0l1-138.8" sodipodi:nodetypes="cccc"/>
  <path id="path3769" class="st4" d="M190,230.7h0v40c0,27,115,27,115,0v-40" sodipodi:nodetypes="cc"/>
  <g id="text3771" class="st8" sodipodi:linespacing="100%">
    <text class="st11" transform="translate(228.6 280.1)"><tspan x="0" y="0">D1</tspan></text>
  </g>
  <g id="g3676">
    <path id="path3777" class="st0" d="M190,190.1h0v40c0,27,115,27,115,0v-40" sodipodi:nodetypes="cc"/>
    <g id="text3779" class="st8" sodipodi:linespacing="100%">
      <text class="st11" transform="translate(232.2 239.6)"><tspan x="0" y="0">C</tspan></text>
      <text class="st9" transform="translate(253.6 239.6)"><tspan x="0" y="0">p</tspan></text>
    </g>
  </g>
  <g id="g3847">
    <path id="path3785" class="st6" d="M190,150.7h0v40c0,27,115,27,115,0v-40" sodipodi:nodetypes="cc"/>
    <g id="text3787" class="st8" sodipodi:linespacing="100%">
      <text class="st11" transform="translate(229.5 200.1)"><tspan x="0" y="0">B2</tspan></text>
    </g>
  </g>
  <path id="path3793" class="st5" d="M190,110.1h0v40c0,27,115,27,115,0v-40" sodipodi:nodetypes="cc"/>
  <g id="text3795" class="st8" sodipodi:linespacing="100%">
    <text class="st11" transform="translate(229.7 159.6)"><tspan x="0" y="0">A2</tspan></text>
  </g>
  <path id="path3799" class="st3" d="M305,110.1c0,11-25.7,20-57.5,20s-57.5-9-57.5-20h0c0-11,25.7-20,57.5-20s57.5,9,57.5,20h0Z" sodipodi:cx="87.5" sodipodi:cy="73.75" sodipodi:rx="57.5" sodipodi:ry="28.75" sodipodi:type="arc"/>
  <g id="text3160" class="st8" sodipodi:linespacing="125%">
    <text class="st7" transform="translate(201.8 472.8)"><tspan x="0" y="0">Disk 1</tspan></text>
  </g>
  <path id="path3256" class="st2" d="M359,269.9l-1,138.8c0,27,115,27,115,0l1-138.8" sodipodi:nodetypes="cccc"/>
  <g id="g3718">
    <g id="g3879">
      <path id="path3260" class="st4" d="M359,230.7h0v40c0,27,115,27,115,0v-40" sodipodi:nodetypes="cc"/>
      <g id="text3262" class="st8" sodipodi:linespacing="100%">
        <text class="st11" transform="translate(397.6 280.1)"><tspan x="0" y="0">D2</tspan></text>
      </g>
    </g>
  </g>
  <g id="g3684">
    <path id="path3268" class="st0" d="M359,190.1h0v40c0,27,115,27,115,0v-40" sodipodi:nodetypes="cc"/>
    <g id="text3270" class="st8" sodipodi:linespacing="100%">
      <text class="st11" transform="translate(398.1 239.6)"><tspan x="0" y="0">C2</tspan></text>
    </g>
  </g>
  <g id="g3855">
    <path id="path3276" class="st6" d="M359,150.7h0v40c0,27,115,27,115,0v-40" sodipodi:nodetypes="cc"/>
    <g id="text3278" class="st8" sodipodi:linespacing="100%">
      <text class="st11" transform="translate(401.6 200.1)"><tspan x="0" y="0">B</tspan></text>
      <text class="st9" transform="translate(422.2 200.1)"><tspan x="0" y="0">p</tspan></text>
    </g>
  </g>
  <g id="g3282">
    <path id="path3284" class="st5" d="M359,110.1h0v40c0,27,115,27,115,0v-40" sodipodi:nodetypes="cc"/>
    <g id="text3286" class="st8" sodipodi:linespacing="100%">
      <text class="st11" transform="translate(398.7 159.6)"><tspan x="0" y="0">A3</tspan></text>
    </g>
  </g>
  <path id="path3290" class="st3" d="M474,110.1c0,11-25.7,20-57.5,20s-57.5-9-57.5-20h0c0-11,25.7-20,57.5-20s57.5,9,57.5,20h0Z" sodipodi:cx="87.5" sodipodi:cy="73.75" sodipodi:rx="57.5" sodipodi:ry="28.75" sodipodi:type="arc"/>
  <g id="text3292" class="st8" sodipodi:linespacing="125%">
    <text class="st7" transform="translate(370.8 472.8)"><tspan x="0" y="0">Disk 2</tspan></text>
  </g>
  <path id="path3568" class="st2" d="M527,269.9l-1,138.8c0,27,115,27,115,0l1-138.8" sodipodi:nodetypes="cccc"/>
  <g id="g3887">
    <path id="path3572" class="st4" d="M527,230.7h0v40c0,27,115,27,115,0v-40" sodipodi:nodetypes="cc"/>
    <g id="text3574" class="st8" sodipodi:linespacing="100%">
      <text class="st11" transform="translate(565.6 280.1)"><tspan x="0" y="0">D3</tspan></text>
    </g>
  </g>
  <path id="path3580" class="st0" d="M527,190.1h0v40c0,27,115,27,115,0v-40" sodipodi:nodetypes="cc"/>
  <g id="text3582" class="st8" sodipodi:linespacing="100%">
    <text class="st11" transform="translate(566.1 239.6)"><tspan x="0" y="0">C3</tspan></text>
  </g>
  <g id="g3863">
    <path id="path3588" class="st6" d="M527,150.7h0v40c0,27,115,27,115,0v-40" sodipodi:nodetypes="cc"/>
    <g id="text3590" class="st8" sodipodi:linespacing="100%">
      <text class="st11" transform="translate(566.5 200.1)"><tspan x="0" y="0">B3</tspan></text>
    </g>
  </g>
  <g id="g3594">
    <path id="path3596" class="st5" d="M527,110.1h0v40c0,27,115,27,115,0v-40" sodipodi:nodetypes="cc"/>
    <g id="text3598" class="st8" sodipodi:linespacing="100%">
      <text class="st11" transform="translate(569.8 159.6)"><tspan x="0" y="0">A</tspan></text>
      <text class="st9" transform="translate(590 159.6)"><tspan x="0" y="0">p</tspan></text>
    </g>
  </g>
  <path id="path3602" class="st3" d="M642,110.1c0,11-25.7,20-57.5,20s-57.5-9-57.5-20h0c0-11,25.7-20,57.5-20s57.5,9,57.5,20h0Z" sodipodi:cx="87.5" sodipodi:cy="73.75" sodipodi:rx="57.5" sodipodi:ry="28.75" sodipodi:type="arc"/>
  <g id="text3604" class="st8" sodipodi:linespacing="125%">
    <text class="st7" transform="translate(538.8 472.8)"><tspan x="0" y="0">Disk 3</tspan></text>
  </g>
  <g id="g3831">
    <path id="path3894" class="st1" d="M80,109.9v-40h170v40"/>
    <path id="path3422" class="st1" d="M248,69.9h170v40"/>
    <path id="path3610" class="st1" d="M415,69.9h170v40"/>
  </g>
</svg>