<?xml version="1.0" encoding="UTF-8"?>
<svg id="svg3710" xmlns="http://www.w3.org/2000/svg" xmlns:svg="http://www.w3.org/2000/svg" xmlns:sodipodi="http://sodipodi.sourceforge.net/DTD/sodipodi-0.dtd" xmlns:rdf="http://www.w3.org/1999/02/22-rdf-syntax-ns#" xmlns:inkscape="http://www.inkscape.org/namespaces/inkscape" xmlns:dc="http://purl.org/dc/elements/1.1/" xmlns:cc="http://web.resource.org/cc/" version="1.1" viewBox="0 0 325 500">
  <!-- Generator: Adobe Illustrator 29.3.1, SVG Export Plug-In . SVG Version: 2.1.0 Build 151)  -->
  <defs>
    <style>
      .st0 {
        fill: none;
      }

      .st0, .st1, .st2, .st3 {
        stroke: #000;
      }

      .st0, .st1, .st3 {
        stroke-width: 2px;
      }

      .st1 {
        fill: #dadada;
      }

      .st1, .st3 {
        fill-rule: evenodd;
      }

      .st2 {
        stroke-linecap: round;
        stroke-linejoin: round;
        stroke-width: 2.4px;
      }

      .st2, .st3 {
        fill: #f4d279;
      }

      .st4, .st5, .st6, .st7 {
        isolation: isolate;
      }

      .st4, .st6 {
        font-family: LMRoman10-Regular, 'Latin Modern Roman';
      }

      .st4, .st7 {
        font-size: 28px;
      }

      .st8 {
        font-family: MyriadPro-Regular, 'Myriad Pro';
        font-size: 12px;
      }

      .st6 {
        font-size: 48px;
      }

      .st7 {
        font-family: LMMono10-Regular, 'Latin Modern Mono';
      }
    </style>
  </defs>
  <sodipodi:namedview id="base" width="325px" height="500px" bordercolor="#666666" borderopacity="1.0" gridtolerance="10000" guidetolerance="10" inkscape:current-layer="layer1" inkscape:cx="255.86074" inkscape:cy="249.02557" inkscape:document-units="px" inkscape:grid-points="true" inkscape:pageopacity="0.0" inkscape:pageshadow="2" inkscape:window-height="660" inkscape:window-width="945" inkscape:window-x="0" inkscape:window-y="31" inkscape:zoom="0.70710678" objecttolerance="10" pagecolor="#ffffff" showgrid="true"/>
  <g id="layer1" inkscape:groupmode="layer" inkscape:label="Layer 1">
    <path id="path3875" class="st1" d="M24,269.9l-1,138.8c0,27,115,27,115,0l1-138.8" sodipodi:nodetypes="cccc"/>
    <g id="g3751">
      <path id="path3753" class="st3" d="M24,230.7h0v40c0,27,115,27,115,0v-40" sodipodi:nodetypes="cc"/>
      <g id="text3755" class="st5" sodipodi:linespacing="100%">
        <text class="st7" transform="translate(63.7 280.1)"><tspan x="0" y="0">A7</tspan></text>
      </g>
    </g>
    <g id="g3759">
      <path id="path3761" class="st3" d="M24,190.1h0v40c0,27,115,27,115,0v-40" sodipodi:nodetypes="cc"/>
      <g id="text3763" class="st5" sodipodi:linespacing="100%">
        <text class="st7" transform="translate(63.7 239.6)"><tspan x="0" y="0">A5</tspan></text>
      </g>
    </g>
    <g id="g3743">
      <path id="path3745" class="st3" d="M24,150.7h0v40c0,27,115,27,115,0v-40" sodipodi:nodetypes="cc"/>
      <g id="text3747" class="st5" sodipodi:linespacing="100%">
        <text class="st7" transform="translate(63.7 200.1)"><tspan x="0" y="0">A3</tspan></text>
      </g>
    </g>
    <g id="g3738">
      <path id="path3722" class="st3" d="M24,110.1h0v40c0,27,115,27,115,0v-40" sodipodi:nodetypes="cc"/>
      <g id="text3724" class="st5" sodipodi:linespacing="100%">
        <text class="st7" transform="translate(63.7 159.6)"><tspan x="0" y="0">A1</tspan></text>
      </g>
    </g>
    <path id="path3718" class="st2" d="M139,110.1c0,11-25.7,20-57.5,20s-57.5-9-57.5-20h0c0-11,25.7-20,57.5-20s57.5,9,57.5,20h0Z" sodipodi:cx="87.5" sodipodi:cy="73.75" sodipodi:rx="57.5" sodipodi:ry="28.75" sodipodi:type="arc"/>
    <path id="path3892" class="st1" d="M190,269.9l-1,138.8c0,27,115,27,115,0l1-138.8" sodipodi:nodetypes="cccc"/>
    <g id="g3767">
      <path id="path3769" class="st3" d="M190,230.7h0v40c0,27,115,27,115,0v-40" sodipodi:nodetypes="cc"/>
      <g id="text3771" class="st5" sodipodi:linespacing="100%">
        <text class="st7" transform="translate(229.7 280.1)"><tspan x="0" y="0">A8</tspan></text>
      </g>
    </g>
    <g id="g3775">
      <path id="path3777" class="st3" d="M190,190.1h0v40c0,27,115,27,115,0v-40" sodipodi:nodetypes="cc"/>
      <g id="text3779" class="st5" sodipodi:linespacing="100%">
        <text class="st7" transform="translate(229.7 239.6)"><tspan x="0" y="0">A6</tspan></text>
      </g>
    </g>
    <g id="g3783">
      <path id="path3785" class="st3" d="M190,150.7h0v40c0,27,115,27,115,0v-40" sodipodi:nodetypes="cc"/>
      <g id="text3787" class="st5" sodipodi:linespacing="100%">
        <text class="st7" transform="translate(229.7 200.1)"><tspan x="0" y="0">A4</tspan></text>
      </g>
    </g>
    <g id="g3791">
      <path id="path3793" class="st3" d="M190,110.1h0v40c0,27,115,27,115,0v-40" sodipodi:nodetypes="cc"/>
      <g id="text3795" class="st5" sodipodi:linespacing="100%">
        <text class="st7" transform="translate(229.7 159.6)"><tspan x="0" y="0">A2</tspan></text>
      </g>
    </g>
    <path id="path3799" class="st2" d="M305,110.1c0,11-25.7,20-57.5,20s-57.5-9-57.5-20h0c0-11,25.7-20,57.5-20s57.5,9,57.5,20h0Z" sodipodi:cx="87.5" sodipodi:cy="73.75" sodipodi:rx="57.5" sodipodi:ry="28.75" sodipodi:type="arc"/>
    <path id="path3894" class="st0" d="M80,109.9v-40h170v40"/>
    <g id="text3896" class="st5" sodipodi:linespacing="125%">
      <text class="st6" transform="translate(77.2 51.6)"><tspan x="0" y="0">RAID 0</tspan></text>
    </g>
    <g id="text3156" class="st5" sodipodi:linespacing="125%">
      <text class="st4" transform="translate(35.8 472.8)"><tspan x="0" y="0">Disk 0</tspan></text>
    </g>
    <g id="text3160" class="st5" sodipodi:linespacing="125%">
      <text class="st4" transform="translate(201.8 472.8)"><tspan x="0" y="0">Disk 1</tspan></text>
    </g>
  </g>
  <text class="st8" transform="translate(398 402)"><tspan x="0" y="0">v</tspan></text>
</svg>