<?xml version="1.0" encoding="utf-8"?>
<!-- Generator: Adobe Illustrator 19.0.0, SVG Export Plug-In . SVG Version: 6.00 Build 0)  -->
<svg version="1.1" id="layer" xmlns="http://www.w3.org/2000/svg" xmlns:xlink="http://www.w3.org/1999/xlink" x="0px" y="0px"
	 viewBox="-153 -46 652 652" style="enable-background:new -153 -46 652 652;" xml:space="preserve">
<style type="text/css">
	.st0{fill:#0059FF;}
	.st1{fill:#FFFFFF;}
	.st2{fill:#71706F;}
</style>
<path class="st0" d="M322.3,249.3L322.3,249.3c0,35.9-28.9,64.9-64.5,64.9c-35.6,0-64.5-29-64.5-64.9c0-35.8,28.9-64.7,64.5-64.7
	C293.4,184.7,322.3,213.5,322.3,249.3z"/>
<path class="st1" d="M267.1,249.3L267.1,249.3c0,5.1-4.1,9.2-9.3,9.2c-5.1,0-9.2-4.1-9.2-9.2c0-5.2,4.1-9.3,9.2-9.3
	C263,240,267.1,244.1,267.1,249.3z"/>
<path d="M-81.9,351.8L-81.9,351.8h-25.7l-4.2,12.1h-19.7l30.2-83.5h13.2l31.3,83.5h-20.8L-81.9,351.8z M-100.4,331L-100.4,331
	l-0.6,1.9h12.5l-0.4-1.4l-5.9-18L-100.4,331z M-38.5,322.7c0-28.8,35-31.1,40.6-7.1h18.7C18.4,294.4,1.7,280-17.7,280
	c-21.6,0-39.1,18.4-39.1,42.7c0,24.3,17.5,42.3,39.1,42.3c19.6,0,35.7-14.2,38.6-35.8H2.2l0,0C-3,353.6-38.5,351.6-38.5,322.7z
	 M64.3,363.8v-63.7h20.2v-18.8h-59v18.8h20.4v63.7l0,0H64.3z M121,365c14.5,0.2,29.2-9,29.2-27.6v-56.1h-18.5v55.9
	c0,12.2-21.3,12.4-21.3,0v-55.9H92.1v56.1l0,0C92.1,356,106.5,365,121,365z M204.2,351.8L204.2,351.8h-25.8l-4.2,12.1h-19.7
	l30.1-83.5h13.2l31.4,83.5h-20.9L204.2,351.8z M185.8,331L185.8,331l-0.7,1.9h12.6l-0.4-1.4l-5.8-18L185.8,331z M279.7,364v-18.4
	h-12.5v-45.7h12.5v-18.8h-43.9v18.8h12.6v45.7h-12.6V364l0,0H279.7z M307.5,335.9L307.5,335.9v27.9h-18.2v-82.6h29.3
	c29.9,0,34.4,40.4,11.2,52.6l16.1,26.2v3.7h-19.6l-15.7-27.9H307.5z M307.5,317.6L307.5,317.6h10.7c11.1,0,11.2-16.9,0-16.9h-10.7
	V317.6z M371.6,332.4h30.9v-19.6h-30.9v-12.1h31.6v-19.5h-49.8v82.6h49.9v-19.5h-31.7l0,0V332.4z M467.2,307.3
	c0-18.9-14.5-27.2-28-27.2c-16,0-29.6,10.8-28.8,29V309c1.4,18.9,15.8,21.7,28.1,23c2.8,0.4,11.4,0.8,11.4,6.8
	c0,4.7-4.8,6.6-10.9,6.6c-4.2,0-10.4-1.5-10.4-9.6h-18.6c0,21,16.8,29.2,29,29.2c14.3,0,29.6-8.3,29.6-27.1
	c0-17.1-12.6-22.4-27.9-24.7c-2.4-0.2-11.4-1-11.4-7.1c0-4.4,4-7.2,9.7-7.2c5.7,0,9.8,3,9.8,8.5l0,0H467.2z"/>
<path class="st1" d="M279.5,281.3L279.5,281.3v18.4h-12.5v46.1h12.5v18h-43.4v-18h12.6v-46.1h-12.6v-18.4H279.5z M279.9,280.9
	L279.9,280.9h-0.4h-43.4h-0.4v0.4v18.4v0.4h0.4h12.1v45.3h-12.1h-0.4v0.4v18v0.4h0.4h43.4h0.4v-0.4v-18v-0.4h-0.4h-12v-45.3h12h0.4
	v-0.4v-18.4V280.9z"/>
<path class="st2" d="M129.3,251.4L129.3,251.4c0-8.3-6-15.3-12.9-15.3c-7.9-0.1-14,6.6-14.1,15c-0.1,9.2,5.9,14.8,13.8,14.9
	c2.3,0,4.8-0.5,6.9-1.6c2.3-1.3,4.9-3.2,5.6-6.7h-3.3c-0.5,1.8-2,3-3.5,3.6c-1.6,0.7-3,1.2-5.6,1.3c-6.1,0-9.9-3.6-10.5-9.8h23.5
	C129.3,252.1,129.3,251.9,129.3,251.4z M105.7,249.5L105.7,249.5c0.5-5.8,4.9-10.1,10.4-10.2c4.4,0,9.1,4,9.7,10.3L105.7,249.5z
	 M-94.8,227L-94.8,227h3.2v38.4h-3.2V227z M-86.5,236.5L-86.5,236.5h3.1v3.1c0,0.2,0,0.7-0.1,1.2c-0.1,1.2-0.1,1.7-0.5,3.2
	c1.3-5.3,4.4-7.9,9.4-7.9c3.8,0,7,1.6,9.2,4.7c1.7,2.3,2.3,4.7,2.3,8.5v16.3h-3.3v-15.9c0-1.2,0-2.3-0.2-3.3c-0.8-4.1-4.2-7-8.1-7
	c-2.3,0-5.1,1.3-6.5,3.4c-1.4,1.7-2,3.8-2,6.9v15.9h-3.2V236.5z M-56.2,257.5L-56.2,257.5c0.3,3.4,2.4,5.5,5.7,5.5
	c3.2,0,5.7-2.3,5.7-5.5c0-1.7-0.6-3.1-1.7-3.9c-0.8-0.7-1.6-1-4.1-1.6c-2.7-0.7-3.8-1.2-5.2-2.2c-1.7-1.4-2.6-3.4-2.6-5.7
	c0-4.7,3.4-8,8-8c5,0,8,3.2,8.2,8h-3.2c-0.3-3.1-2.1-4.9-5.1-4.9c-2.8,0-5,2-5,4.9c0,1.4,0.5,2.4,1.5,3.2c0.8,0.6,1.9,1.1,4,1.7
	c1.1,0.2,1.9,0.4,2.4,0.6c0.9,0.3,2,0.7,2.8,1.3c1.8,1.3,2.8,3.8,2.8,6.5c0,5.2-3.7,8.9-8.9,8.9c-5.1,0-8.4-3.4-8.6-8.7H-56.2z
	 M-37.9,236.5L-37.9,236.5h4.2V227h3.1v9.5h6.3v3.2h-6.3v25.7h-3.1v-25.7h-4.2V236.5z M-19.6,236.5L-19.6,236.5h3.2v28.9h-3.2V236.5
	z M-17.9,226.9L-17.9,226.9c1.4,0,2.5,1.1,2.5,2.3v0.5c0,1.4-1.2,2.4-2.5,2.4c-1.5,0-2.6-1.1-2.6-2.4v-0.5
	C-20.5,227.9-19.4,226.9-17.9,226.9z M-9.2,236.5L-9.2,236.5H-5V227h3.2v9.5h6.3v3.2H-2v25.7H-5v-25.7h-4.1V236.5z M28.7,261.3
	L28.7,261.3c-1.8,2.9-4.8,4.7-8.3,4.7c-3.5,0-6.6-1.7-8.8-4.6c-1.9-2.5-2.4-4.6-2.4-9.1v-15.8h3v15.9c0,6.1,3.3,10.2,8.4,10.2
	c4.8,0,8.3-4.1,8.3-9.9v-16.1h3v28.9h-3v-2.2c0-0.5,0.1-1.2,0.2-1.9c0.1-1.4,0.3-2,0.7-3.5C29.6,259.5,29.3,260.2,28.7,261.3z
	 M36.3,236.5L36.3,236.5h4.2V227h3v9.5h6.3v3.2h-6.3v25.7h-3v-25.7h-4.2V236.5z M94.7,241.2L94.7,241.2V227h3.1v38.4h-3.2v-4.7
	c0-1.1,0.1-2,0.5-3.4c-0.3,0.7-0.4,1.1-0.6,1.6c-0.5,1-0.9,1.7-1.3,2.2c-2.1,3-5.9,4.9-9.8,4.9c-7.8,0-13.8-6.6-13.8-14.9
	c0-8.7,6.1-15.3,14.1-15.3c5.5,0,9.3,2.9,11.4,8.5C94.7,243,94.7,242.4,94.7,241.2z M72.9,251L72.9,251c0,6.5,4.9,11.6,11,11.6
	c5.8,0,10.6-5.2,10.6-11.6c0-6.5-4.9-11.9-10.8-11.9C77.6,239.2,72.9,244.3,72.9,251z M136.4,257.5L136.4,257.5
	c0.2,3.4,2.4,5.5,5.7,5.5c3.2,0,5.7-2.3,5.7-5.5c0-1.7-0.6-3.1-1.7-3.9c-0.8-0.7-1.7-1-4.1-1.6c-2.7-0.7-3.8-1.2-5.2-2.2
	c-1.8-1.4-2.6-3.4-2.6-5.7c0-4.7,3.4-8,8-8c4.9,0,8,3.2,8.2,8h-3.2c-0.3-3.1-2.1-4.9-5.1-4.9c-2.9,0-5,2-5,4.9
	c0,1.4,0.5,2.4,1.5,3.2c0.8,0.6,1.9,1.1,4,1.7c1.1,0.2,1.9,0.4,2.4,0.6c0.9,0.3,2,0.7,2.8,1.3c1.8,1.3,2.9,3.8,2.9,6.5
	c0,5.2-3.7,8.9-8.9,8.9c-5.1,0-8.4-3.4-8.7-8.7H136.4z"/>
</svg>
