<?xml version="1.0" encoding="UTF-8" ?>
<!DOCTYPE svg PUBLIC "-//W3C//DTD SVG 1.1//EN" "http://www.w3.org/Graphics/SVG/1.1/DTD/svg11.dtd">
<svg width="599pt" height="430pt" viewBox="0 0 599 430" version="1.1" xmlns="http://www.w3.org/2000/svg">
<g id="#ffffffff">
<path fill="#ffffff" opacity="1.00" d=" M 0.00 0.00 L 599.00 0.00 L 599.00 430.00 L 0.00 430.00 L 0.00 0.00 M 96.00 17.00 C 95.98 35.67 96.02 54.33 96.00 73.00 C 67.33 73.00 38.67 73.00 10.00 73.00 C 10.00 73.50 10.00 74.50 10.00 75.00 C 38.67 75.00 67.33 75.00 96.00 75.00 C 96.00 93.33 96.00 111.67 96.00 130.00 C 67.33 130.00 38.67 130.00 10.00 130.00 C 10.00 130.50 10.00 131.50 10.00 132.00 C 38.67 132.00 67.33 132.00 95.99 132.00 C 96.02 150.67 95.97 169.33 96.01 188.00 C 96.50 188.00 97.50 188.00 98.00 188.00 C 98.02 169.33 97.97 150.67 98.01 132.00 C 125.67 132.00 153.33 131.99 180.99 132.01 C 181.02 150.67 180.97 169.33 181.01 188.00 C 181.50 188.00 182.50 188.00 183.00 188.00 C 183.02 169.33 182.98 150.67 183.01 132.00 C 210.34 132.00 237.67 132.00 265.00 132.00 C 265.00 131.50 265.00 130.50 265.00 130.00 C 237.67 130.00 210.33 130.00 183.00 130.00 C 182.99 111.67 183.00 93.33 183.00 75.00 C 210.33 75.00 237.67 75.00 265.00 75.00 C 265.00 74.50 265.00 73.50 265.00 73.00 C 237.67 73.00 210.34 73.00 183.01 73.00 C 182.97 54.33 183.03 35.67 182.99 17.00 C 182.50 17.00 181.50 17.00 181.00 17.00 C 180.97 35.67 181.02 54.33 180.99 73.00 C 153.33 73.00 125.67 73.00 98.01 72.99 C 97.97 54.33 98.03 35.66 97.99 17.00 C 97.50 17.00 96.50 17.00 96.00 17.00 M 408.00 17.00 C 407.98 35.67 408.02 54.33 408.00 73.00 C 379.33 73.00 350.66 73.00 322.00 73.00 C 322.00 73.50 322.00 74.50 322.00 75.00 C 350.67 75.00 379.33 75.00 408.00 75.00 C 408.00 93.33 408.00 111.67 408.00 130.00 C 379.33 130.00 350.66 130.00 322.00 130.00 C 322.00 130.50 322.00 131.50 322.00 132.00 C 350.66 132.00 379.33 132.00 407.99 132.00 C 408.02 150.67 407.97 169.33 408.01 188.00 C 408.50 188.00 409.50 188.00 410.00 188.00 C 410.02 169.33 409.97 150.67 410.01 132.00 C 437.67 132.00 465.33 131.99 492.99 132.01 C 493.02 150.67 492.97 169.33 493.01 188.00 C 493.50 188.00 494.50 188.00 495.00 188.00 C 495.02 169.33 494.97 150.67 495.01 132.00 C 522.34 132.00 549.67 132.00 577.00 132.00 C 577.00 131.50 577.00 130.50 577.00 130.00 C 549.66 130.00 522.33 130.00 495.00 130.00 C 494.99 111.67 495.00 93.33 495.00 75.00 C 522.33 75.00 549.66 75.00 577.00 75.00 C 577.00 74.50 577.00 73.50 577.00 73.00 C 549.66 73.00 522.33 73.00 495.01 73.00 C 494.97 54.33 495.02 35.67 494.99 17.00 C 494.50 17.00 493.50 17.00 493.00 17.00 C 492.97 35.67 493.02 54.33 492.99 73.00 C 465.33 73.00 437.67 73.00 410.01 72.99 C 409.97 54.33 410.02 35.66 409.99 17.00 C 409.50 17.00 408.50 17.00 408.00 17.00 M 254.02 251.01 C 216.63 275.32 179.14 299.49 141.75 323.80 C 139.13 325.73 136.24 323.43 133.92 322.15 C 93.43 296.17 52.51 270.84 12.00 244.87 C 11.42 245.28 10.26 246.10 9.68 246.51 C 12.61 248.91 15.73 251.07 18.97 253.05 C 58.07 277.78 97.27 302.37 136.29 327.23 C 99.88 350.85 63.42 374.39 26.98 397.97 C 21.75 401.27 16.69 404.82 11.73 408.51 C 12.28 408.92 13.38 409.72 13.93 410.12 C 55.59 382.95 97.54 356.23 139.09 328.91 C 181.43 355.59 223.80 382.23 266.01 409.13 C 266.58 408.72 267.74 407.90 268.32 407.49 C 265.68 405.50 262.97 403.59 260.24 401.76 C 221.03 376.76 181.47 352.32 142.41 327.10 C 180.83 301.88 219.54 277.10 258.13 252.12 C 261.28 249.81 264.22 247.19 266.98 244.42 C 262.56 246.42 258.04 248.26 254.02 251.01 M 323.68 245.51 C 329.03 249.93 335.12 253.32 340.93 257.08 C 377.42 280.17 414.05 303.06 450.41 326.36 C 411.74 351.80 372.69 376.67 333.90 401.92 C 330.58 404.24 327.48 406.88 324.51 409.63 C 328.35 409.02 331.79 407.13 334.97 404.98 C 374.47 379.25 414.06 353.67 453.67 328.12 C 495.67 354.96 538.02 381.25 580.01 408.13 C 580.58 407.72 581.74 406.90 582.32 406.49 C 579.49 404.35 576.58 402.32 573.66 400.36 C 534.67 375.65 495.52 351.17 456.61 326.34 C 497.58 299.00 539.69 273.38 580.27 245.49 C 579.72 245.08 578.62 244.28 578.07 243.88 C 536.65 270.88 494.97 297.47 453.64 324.59 C 411.09 297.69 368.44 270.95 326.00 243.87 C 325.42 244.28 324.26 245.10 323.68 245.51 Z" />
<path fill="#ffffff" opacity="1.00" d=" M 98.00 75.01 C 125.67 74.99 153.33 75.00 181.00 75.00 C 181.00 93.33 181.00 111.66 181.00 129.99 C 153.33 130.01 125.67 130.00 98.00 130.00 C 98.00 111.67 98.00 93.34 98.00 75.01 Z" />
<path fill="#ffffff" opacity="1.00" d=" M 410.00 75.01 C 437.67 74.99 465.33 75.00 493.00 75.00 C 493.00 93.33 493.00 111.66 493.00 129.99 C 465.33 130.01 437.67 130.00 410.00 130.00 C 410.00 111.67 409.99 93.34 410.00 75.01 Z" />
</g>
<g id="#010101ff">
<path fill="#010101" opacity="1.00" d=" M 96.00 17.00 C 96.50 17.00 97.50 17.00 97.99 17.00 C 98.03 35.66 97.97 54.33 98.01 72.99 C 125.67 73.00 153.33 73.00 180.99 73.00 C 181.02 54.33 180.97 35.67 181.00 17.00 C 181.50 17.00 182.50 17.00 182.99 17.00 C 183.03 35.67 182.97 54.33 183.01 73.00 C 210.34 73.00 237.67 73.00 265.00 73.00 C 265.00 73.50 265.00 74.50 265.00 75.00 C 237.67 75.00 210.33 75.00 183.00 75.00 C 183.00 93.33 182.99 111.67 183.00 130.00 C 210.33 130.00 237.67 130.00 265.00 130.00 C 265.00 130.50 265.00 131.50 265.00 132.00 C 237.67 132.00 210.34 132.00 183.01 132.00 C 182.98 150.67 183.02 169.33 183.00 188.00 C 182.50 188.00 181.50 188.00 181.01 188.00 C 180.97 169.33 181.02 150.67 180.99 132.01 C 153.33 131.99 125.67 132.00 98.01 132.00 C 97.97 150.67 98.02 169.33 98.00 188.00 C 97.50 188.00 96.50 188.00 96.01 188.00 C 95.97 169.33 96.02 150.67 95.99 132.00 C 67.33 132.00 38.67 132.00 10.00 132.00 C 10.00 131.50 10.00 130.50 10.00 130.00 C 38.67 130.00 67.33 130.00 96.00 130.00 C 96.00 111.67 96.00 93.33 96.00 75.00 C 67.33 75.00 38.67 75.00 10.00 75.00 C 10.00 74.50 10.00 73.50 10.00 73.00 C 38.67 73.00 67.33 73.00 96.00 73.00 C 96.02 54.33 95.98 35.67 96.00 17.00 M 98.00 75.01 C 98.00 93.34 98.00 111.67 98.00 130.00 C 125.67 130.00 153.33 130.01 181.00 129.99 C 181.00 111.66 181.00 93.33 181.00 75.00 C 153.33 75.00 125.67 74.99 98.00 75.01 Z" />
<path fill="#010101" opacity="1.00" d=" M 408.00 17.00 C 408.50 17.00 409.50 17.00 409.99 17.00 C 410.02 35.66 409.97 54.33 410.01 72.99 C 437.67 73.00 465.33 73.00 492.99 73.00 C 493.02 54.33 492.97 35.67 493.00 17.00 C 493.50 17.00 494.50 17.00 494.99 17.00 C 495.02 35.67 494.97 54.33 495.01 73.00 C 522.33 73.00 549.66 73.00 577.00 73.00 C 577.00 73.50 577.00 74.50 577.00 75.00 C 549.66 75.00 522.33 75.00 495.00 75.00 C 495.00 93.33 494.99 111.67 495.00 130.00 C 522.33 130.00 549.66 130.00 577.00 130.00 C 577.00 130.50 577.00 131.50 577.00 132.00 C 549.67 132.00 522.34 132.00 495.01 132.00 C 494.97 150.67 495.02 169.33 495.00 188.00 C 494.50 188.00 493.50 188.00 493.01 188.00 C 492.97 169.33 493.02 150.67 492.99 132.01 C 465.33 131.99 437.67 132.00 410.01 132.00 C 409.97 150.67 410.02 169.33 410.00 188.00 C 409.50 188.00 408.50 188.00 408.01 188.00 C 407.97 169.33 408.02 150.67 407.99 132.00 C 379.33 132.00 350.66 132.00 322.00 132.00 C 322.00 131.50 322.00 130.50 322.00 130.00 C 350.66 130.00 379.33 130.00 408.00 130.00 C 408.00 111.67 408.00 93.33 408.00 75.00 C 379.33 75.00 350.67 75.00 322.00 75.00 C 322.00 74.50 322.00 73.50 322.00 73.00 C 350.66 73.00 379.33 73.00 408.00 73.00 C 408.02 54.33 407.98 35.67 408.00 17.00 M 410.00 75.01 C 409.99 93.34 410.00 111.67 410.00 130.00 C 437.67 130.00 465.33 130.01 493.00 129.99 C 493.00 111.66 493.00 93.33 493.00 75.00 C 465.33 75.00 437.67 74.99 410.00 75.01 Z" />
<path fill="#010101" opacity="1.00" d=" M 254.02 251.01 C 258.04 248.26 262.56 246.42 266.98 244.42 C 264.22 247.19 261.28 249.81 258.13 252.12 C 219.54 277.10 180.83 301.88 142.41 327.10 C 181.47 352.32 221.03 376.76 260.24 401.76 C 262.97 403.59 265.68 405.50 268.32 407.49 C 267.74 407.90 266.58 408.72 266.01 409.13 C 223.80 382.23 181.43 355.59 139.09 328.91 C 97.54 356.23 55.59 382.95 13.93 410.12 C 13.38 409.72 12.28 408.92 11.73 408.51 C 16.69 404.82 21.75 401.27 26.98 397.97 C 63.42 374.39 99.88 350.85 136.29 327.23 C 97.27 302.37 58.07 277.78 18.97 253.05 C 15.73 251.07 12.61 248.91 9.68 246.51 C 10.26 246.10 11.42 245.28 12.00 244.87 C 52.51 270.84 93.43 296.17 133.92 322.15 C 136.24 323.43 139.13 325.73 141.75 323.80 C 179.14 299.49 216.63 275.32 254.02 251.01 Z" />
<path fill="#010101" opacity="1.00" d=" M 323.68 245.51 C 324.26 245.10 325.42 244.28 326.00 243.87 C 368.44 270.95 411.09 297.69 453.64 324.59 C 494.97 297.47 536.65 270.88 578.07 243.88 C 578.62 244.28 579.72 245.08 580.27 245.49 C 539.69 273.38 497.58 299.00 456.61 326.34 C 495.52 351.17 534.67 375.65 573.66 400.36 C 576.58 402.32 579.49 404.35 582.32 406.49 C 581.74 406.90 580.58 407.72 580.01 408.13 C 538.02 381.25 495.67 354.96 453.67 328.12 C 414.06 353.67 374.47 379.25 334.97 404.98 C 331.79 407.13 328.35 409.02 324.51 409.63 C 327.48 406.88 330.58 404.24 333.90 401.92 C 372.69 376.67 411.74 351.80 450.41 326.36 C 414.05 303.06 377.42 280.17 340.93 257.08 C 335.12 253.32 329.03 249.93 323.68 245.51 Z" />

  <text
     xml:space="preserve"
     style="font-size:50;font-style:normal;font-variant:normal;font-weight:normal;font-stretch:normal;text-align:start;line-height:125%;writing-mode:lr-tb;text-anchor:start;fill:#000000;fill-opacity:1;stroke:none;stroke-width:1px;stroke-linecap:butt;stroke-linejoin:miter;stroke-opacity:1;font-family:Times New Roman;"
     x="35"
     y="60">A</text>

  <text
     xml:space="preserve"
     style="font-size:50;font-style:normal;font-variant:normal;font-weight:normal;font-stretch:normal;text-align:start;line-height:125%;writing-mode:lr-tb;text-anchor:start;fill:#000000;fill-opacity:1;stroke:none;stroke-width:1px;stroke-linecap:butt;stroke-linejoin:miter;stroke-opacity:1;font-family:Times New Roman;"
     x="120"
     y="60">B</text>

  <text
     xml:space="preserve"
     style="font-size:50;font-style:normal;font-variant:normal;font-weight:normal;font-stretch:normal;text-align:start;line-height:125%;writing-mode:lr-tb;text-anchor:start;fill:#000000;fill-opacity:1;stroke:none;stroke-width:1px;stroke-linecap:butt;stroke-linejoin:miter;stroke-opacity:1;font-family:Times New Roman;"
     x="205"
     y="60">C</text>

  <text
     xml:space="preserve"
     style="font-size:50;font-style:normal;font-variant:normal;font-weight:normal;font-stretch:normal;text-align:start;line-height:125%;writing-mode:lr-tb;text-anchor:start;fill:#000000;fill-opacity:1;stroke:none;stroke-width:1px;stroke-linecap:butt;stroke-linejoin:miter;stroke-opacity:1;font-family:Times New Roman;"
     x="35"
     y="120">D</text>

  <text
     xml:space="preserve"
     style="font-size:50;font-style:normal;font-variant:normal;font-weight:normal;font-stretch:normal;text-align:start;line-height:125%;writing-mode:lr-tb;text-anchor:start;fill:#000000;fill-opacity:1;stroke:none;stroke-width:1px;stroke-linecap:butt;stroke-linejoin:miter;stroke-opacity:1;font-family:Times New Roman;"
     x="120"
     y="120">E</text>

  <text
     xml:space="preserve"
     style="font-size:50;font-style:normal;font-variant:normal;font-weight:normal;font-stretch:normal;text-align:start;line-height:125%;writing-mode:lr-tb;text-anchor:start;fill:#000000;fill-opacity:1;stroke:none;stroke-width:1px;stroke-linecap:butt;stroke-linejoin:miter;stroke-opacity:1;font-family:Times New Roman;"
     x="205"
     y="120">F</text>

  <text
     xml:space="preserve"
     style="font-size:50;font-style:normal;font-variant:normal;font-weight:normal;font-stretch:normal;text-align:start;line-height:125%;writing-mode:lr-tb;text-anchor:start;fill:#000000;fill-opacity:1;stroke:none;stroke-width:1px;stroke-linecap:butt;stroke-linejoin:miter;stroke-opacity:1;font-family:Times New Roman;"
     x="35"
     y="180">G</text>

  <text
     xml:space="preserve"
     style="font-size:50;font-style:normal;font-variant:normal;font-weight:normal;font-stretch:normal;text-align:start;line-height:125%;writing-mode:lr-tb;text-anchor:start;fill:#000000;fill-opacity:1;stroke:none;stroke-width:1px;stroke-linecap:butt;stroke-linejoin:miter;stroke-opacity:1;font-family:Times New Roman;"
     x="120"
     y="180">H</text>

  <text
     xml:space="preserve"
     style="font-size:50;font-style:normal;font-variant:normal;font-weight:normal;font-stretch:normal;text-align:start;line-height:125%;writing-mode:lr-tb;text-anchor:start;fill:#000000;fill-opacity:1;stroke:none;stroke-width:1px;stroke-linecap:butt;stroke-linejoin:miter;stroke-opacity:1;font-family:Times New Roman;"
     x="210"
     y="180">I</text>


  <text
     xml:space="preserve"
     style="font-size:50;font-style:normal;font-variant:normal;font-weight:normal;font-stretch:normal;text-align:start;line-height:125%;writing-mode:lr-tb;text-anchor:start;fill:#000000;fill-opacity:1;stroke:none;stroke-width:1px;stroke-linecap:butt;stroke-linejoin:miter;stroke-opacity:1;font-family:Times New Roman;"
     x="122"
     y="290">S</text>

  <text
     xml:space="preserve"
     style="font-size:50;font-style:normal;font-variant:normal;font-weight:normal;font-stretch:normal;text-align:start;line-height:125%;writing-mode:lr-tb;text-anchor:start;fill:#000000;fill-opacity:1;stroke:none;stroke-width:1px;stroke-linecap:butt;stroke-linejoin:miter;stroke-opacity:1;font-family:Times New Roman;"
     x="40"
     y="345">T</text>

  <text
     xml:space="preserve"
     style="font-size:50;font-style:normal;font-variant:normal;font-weight:normal;font-stretch:normal;text-align:start;line-height:125%;writing-mode:lr-tb;text-anchor:start;fill:#000000;fill-opacity:1;stroke:none;stroke-width:1px;stroke-linecap:butt;stroke-linejoin:miter;stroke-opacity:1;font-family:Times New Roman;"
     x="210"
     y="345">U</text>

  <text
     xml:space="preserve"
     style="font-size:50;font-style:normal;font-variant:normal;font-weight:normal;font-stretch:normal;text-align:start;line-height:125%;writing-mode:lr-tb;text-anchor:start;fill:#000000;fill-opacity:1;stroke:none;stroke-width:1px;stroke-linecap:butt;stroke-linejoin:miter;stroke-opacity:1;font-family:Times New Roman;"
     x="120"
     y="400">V</text>



  <text
     xml:space="preserve"
     style="font-size:50;font-style:normal;font-variant:normal;font-weight:normal;font-stretch:normal;text-align:start;line-height:125%;writing-mode:lr-tb;text-anchor:start;fill:#000000;fill-opacity:1;stroke:none;stroke-width:1px;stroke-linecap:butt;stroke-linejoin:miter;stroke-opacity:1;font-family:Times New Roman;"
     x="350"
     y="60">J.</text>

  <text
     xml:space="preserve"
     style="font-size:50;font-style:normal;font-variant:normal;font-weight:normal;font-stretch:normal;text-align:start;line-height:125%;writing-mode:lr-tb;text-anchor:start;fill:#000000;fill-opacity:1;stroke:none;stroke-width:1px;stroke-linecap:butt;stroke-linejoin:miter;stroke-opacity:1;font-family:Times New Roman;"
     x="430"
     y="60">K.</text>

  <text
     xml:space="preserve"
     style="font-size:50;font-style:normal;font-variant:normal;font-weight:normal;font-stretch:normal;text-align:start;line-height:125%;writing-mode:lr-tb;text-anchor:start;fill:#000000;fill-opacity:1;stroke:none;stroke-width:1px;stroke-linecap:butt;stroke-linejoin:miter;stroke-opacity:1;font-family:Times New Roman;"
     x="510"
     y="60">.L</text>

  <text
     xml:space="preserve"
     style="font-size:50;font-style:normal;font-variant:normal;font-weight:normal;font-stretch:normal;text-align:start;line-height:125%;writing-mode:lr-tb;text-anchor:start;fill:#000000;fill-opacity:1;stroke:none;stroke-width:1px;stroke-linecap:butt;stroke-linejoin:miter;stroke-opacity:1;font-family:Times New Roman;"
     x="340"
     y="120">M.</text>

  <text
     xml:space="preserve"
     style="font-size:50;font-style:normal;font-variant:normal;font-weight:normal;font-stretch:normal;text-align:start;line-height:125%;writing-mode:lr-tb;text-anchor:start;fill:#000000;fill-opacity:1;stroke:none;stroke-width:1px;stroke-linecap:butt;stroke-linejoin:miter;stroke-opacity:1;font-family:Times New Roman;"
     x="430"
     y="120">N.</text>

  <text
     xml:space="preserve"
     style="font-size:50;font-style:normal;font-variant:normal;font-weight:normal;font-stretch:normal;text-align:start;line-height:125%;writing-mode:lr-tb;text-anchor:start;fill:#000000;fill-opacity:1;stroke:none;stroke-width:1px;stroke-linecap:butt;stroke-linejoin:miter;stroke-opacity:1;font-family:Times New Roman;"
     x="510"
     y="120">.O</text>

  <text
     xml:space="preserve"
     style="font-size:50;font-style:normal;font-variant:normal;font-weight:normal;font-stretch:normal;text-align:start;line-height:125%;writing-mode:lr-tb;text-anchor:start;fill:#000000;fill-opacity:1;stroke:none;stroke-width:1px;stroke-linecap:butt;stroke-linejoin:miter;stroke-opacity:1;font-family:Times New Roman;"
     x="350"
     y="180">P.</text>

  <text
     xml:space="preserve"
     style="font-size:50;font-style:normal;font-variant:normal;font-weight:normal;font-stretch:normal;text-align:start;line-height:125%;writing-mode:lr-tb;text-anchor:start;fill:#000000;fill-opacity:1;stroke:none;stroke-width:1px;stroke-linecap:butt;stroke-linejoin:miter;stroke-opacity:1;font-family:Times New Roman;"
     x="430"
     y="180">Q.</text>

  <text
     xml:space="preserve"
     style="font-size:50;font-style:normal;font-variant:normal;font-weight:normal;font-stretch:normal;text-align:start;line-height:125%;writing-mode:lr-tb;text-anchor:start;fill:#000000;fill-opacity:1;stroke:none;stroke-width:1px;stroke-linecap:butt;stroke-linejoin:miter;stroke-opacity:1;font-family:Times New Roman;"
     x="510"
     y="180">.R</text>

  <text
     xml:space="preserve"
     style="font-size:50;font-style:normal;font-variant:normal;font-weight:normal;font-stretch:normal;text-align:start;line-height:125%;writing-mode:lr-tb;text-anchor:start;fill:#000000;fill-opacity:1;stroke:none;stroke-width:1px;stroke-linecap:butt;stroke-linejoin:miter;stroke-opacity:1;font-family:Times New Roman;"
     x="422"
     y="290">W.</text>

  <text
     xml:space="preserve"
     style="font-size:50;font-style:normal;font-variant:normal;font-weight:normal;font-stretch:normal;text-align:start;line-height:125%;writing-mode:lr-tb;text-anchor:start;fill:#000000;fill-opacity:1;stroke:none;stroke-width:1px;stroke-linecap:butt;stroke-linejoin:miter;stroke-opacity:1;font-family:Times New Roman;"
     x="345"
     y="345">X.</text>

  <text
     xml:space="preserve"
     style="font-size:50;font-style:normal;font-variant:normal;font-weight:normal;font-stretch:normal;text-align:start;line-height:125%;writing-mode:lr-tb;text-anchor:start;fill:#000000;fill-opacity:1;stroke:none;stroke-width:1px;stroke-linecap:butt;stroke-linejoin:miter;stroke-opacity:1;font-family:Times New Roman;"
     x="510"
     y="345">Y.</text>

  <text
     xml:space="preserve"
     style="font-size:50;font-style:normal;font-variant:normal;font-weight:normal;font-stretch:normal;text-align:start;line-height:125%;writing-mode:lr-tb;text-anchor:start;fill:#000000;fill-opacity:1;stroke:none;stroke-width:1px;stroke-linecap:butt;stroke-linejoin:miter;stroke-opacity:1;font-family:Times New Roman;"
     x="435"
     y="400">Z.</text>

</g>
</svg>
