<?xml version="1.0" encoding="UTF-8"?>
<svg id="Ebene_1" xmlns="http://www.w3.org/2000/svg" xmlns:svg="http://www.w3.org/2000/svg" version="1.1" viewBox="0 0 325 500">
  <!-- Generator: Adobe Illustrator 29.3.1, SVG Export Plug-In . SVG Version: 2.1.0 Build 151)  -->
  <defs>
    <style>
      .st0 {
        fill: none;
      }

      .st0, .st1, .st2, .st3 {
        stroke: #000;
      }

      .st0, .st1, .st3 {
        stroke-width: 2px;
      }

      .st1 {
        fill: #dadada;
      }

      .st1, .st3 {
        fill-rule: evenodd;
      }

      .st2 {
        stroke-linecap: round;
        stroke-linejoin: round;
        stroke-width: 2.4px;
      }

      .st2, .st3 {
        fill: #f4d279;
      }

      .st4, .st5, .st6, .st7 {
        isolation: isolate;
      }

      .st4, .st6 {
        font-family: LMRoman10-Regular, 'Latin Modern Roman';
      }

      .st4, .st7 {
        font-size: 28px;
      }

      .st6 {
        font-size: 48px;
      }

      .st7 {
        font-family: LMMono10-Regular, 'Latin Modern Mono';
      }
    </style>
  </defs>
  <path class="st1" d="M24,269.9l-1,138.8c0,27,115,27,115,0l1-138.8"/>
  <g>
    <path class="st3" d="M24,230.7h0v40c0,27,115,27,115,0v-40"/>
    <g class="st5">
      <text class="st7" transform="translate(63.7 280.1)"><tspan x="0" y="0">A4</tspan></text>
    </g>
  </g>
  <g>
    <path class="st3" d="M24,190.1h0v40c0,27,115,27,115,0v-40"/>
    <g class="st5">
      <text class="st7" transform="translate(63.7 239.6)"><tspan x="0" y="0">A3</tspan></text>
    </g>
  </g>
  <g>
    <path class="st3" d="M24,150.7h0v40c0,27,115,27,115,0v-40"/>
    <g class="st5">
      <text class="st7" transform="translate(63.7 200.1)"><tspan x="0" y="0">A2</tspan></text>
    </g>
  </g>
  <g>
    <path class="st3" d="M24,110.1h0v40c0,27,115,27,115,0v-40"/>
    <g class="st5">
      <text class="st7" transform="translate(63.7 159.6)"><tspan x="0" y="0">A1</tspan></text>
    </g>
  </g>
  <path class="st2" d="M139,110.1c0,11-25.7,20-57.5,20s-57.5-9-57.5-20h0c0-11,25.7-20,57.5-20s57.5,9,57.5,20h0Z"/>
  <path class="st1" d="M190,269.9l-1,138.8c0,27,115,27,115,0l1-138.8"/>
  <g>
    <path class="st3" d="M190,230.7h0v40c0,27,115,27,115,0v-40"/>
    <g class="st5">
      <text class="st7" transform="translate(229.7 280.1)"><tspan x="0" y="0">A4</tspan></text>
    </g>
  </g>
  <g>
    <path class="st3" d="M190,190.1h0v40c0,27,115,27,115,0v-40"/>
    <g class="st5">
      <text class="st7" transform="translate(229.7 239.6)"><tspan x="0" y="0">A3</tspan></text>
    </g>
  </g>
  <g>
    <path class="st3" d="M190,150.7h0v40c0,27,115,27,115,0v-40"/>
    <g class="st5">
      <text class="st7" transform="translate(229.7 200.1)"><tspan x="0" y="0">A2</tspan></text>
    </g>
  </g>
  <g>
    <path class="st3" d="M190,110.1h0v40c0,27,115,27,115,0v-40"/>
    <g class="st5">
      <text class="st7" transform="translate(229.7 159.6)"><tspan x="0" y="0">A1</tspan></text>
    </g>
  </g>
  <path class="st2" d="M305,110.1c0,11-25.7,20-57.5,20s-57.5-9-57.5-20h0c0-11,25.7-20,57.5-20s57.5,9,57.5,20h0Z"/>
  <path class="st0" d="M80,109.9v-40h170v40"/>
  <g class="st5">
    <text class="st6" transform="translate(77.2 51.6)"><tspan x="0" y="0">RAID 1</tspan></text>
  </g>
  <g class="st5">
    <text class="st4" transform="translate(35.8 472.8)"><tspan x="0" y="0">Disk 0</tspan></text>
  </g>
  <g class="st5">
    <text class="st4" transform="translate(201.8 472.8)"><tspan x="0" y="0">Disk 1</tspan></text>
  </g>
</svg>