<?xml version="1.0" encoding="UTF-8"?>
<svg id="svg3710" xmlns="http://www.w3.org/2000/svg" xmlns:svg="http://www.w3.org/2000/svg" xmlns:sodipodi="http://sodipodi.sourceforge.net/DTD/sodipodi-0.dtd" xmlns:rdf="http://www.w3.org/1999/02/22-rdf-syntax-ns#" xmlns:inkscape="http://www.inkscape.org/namespaces/inkscape" xmlns:dc="http://purl.org/dc/elements/1.1/" xmlns:cc="http://creativecommons.org/ns#" version="1.1" viewBox="0 0 850 500">
  <!-- Generator: Adobe Illustrator 29.3.1, SVG Export Plug-In . SVG Version: 2.1.0 Build 151)  -->
  <defs>
    <style>
      .st0 {
        fill: #acf479;
      }

      .st0, .st1, .st2, .st3, .st4, .st5, .st6, .st7 {
        stroke: #000;
      }

      .st0, .st1, .st2, .st4, .st5, .st6, .st7 {
        stroke-width: 2px;
      }

      .st0, .st2, .st4, .st5, .st6, .st7 {
        fill-rule: evenodd;
      }

      .st1 {
        fill: none;
      }

      .st2 {
        fill: #dadada;
      }

      .st3 {
        stroke-linecap: round;
        stroke-linejoin: round;
        stroke-width: 2.4px;
      }

      .st3, .st6 {
        fill: #f4d279;
      }

      .st8, .st9, .st10, .st11, .st12 {
        isolation: isolate;
      }

      .st8, .st11 {
        font-family: LMRoman10-Regular, 'Latin Modern Roman';
      }

      .st8, .st12 {
        font-size: 28px;
      }

      .st10 {
        font-size: 18px;
      }

      .st10, .st12 {
        font-family: LMMono10-Regular, 'Latin Modern Mono';
      }

      .st11 {
        font-size: 48px;
      }

      .st4 {
        fill: #7750ff;
      }

      .st5 {
        fill: #79cbf4;
      }

      .st7 {
        fill: #ebf479;
      }
    </style>
  </defs>
  <g id="_x3C_defs">
    <inkscape:perspective id="perspective3060" inkscape:persp3d-origin="425 : 166.66667 : 1" inkscape:vp_x="0 : 250 : 1" inkscape:vp_y="0 : 1000 : 0" inkscape:vp_z="850 : 250 : 1" sodipodi:type="inkscape:persp3d"/>
    <inkscape:perspective id="perspective3070" inkscape:persp3d-origin="0.5 : 0.33333333 : 1" inkscape:vp_x="0 : 0.5 : 1" inkscape:vp_y="0 : 1000 : 0" inkscape:vp_z="1 : 0.5 : 1" sodipodi:type="inkscape:persp3d"/>
    <inkscape:perspective id="perspective3104" inkscape:persp3d-origin="0.5 : 0.33333333 : 1" inkscape:vp_x="0 : 0.5 : 1" inkscape:vp_y="0 : 1000 : 0" inkscape:vp_z="1 : 0.5 : 1" sodipodi:type="inkscape:persp3d"/>
    <inkscape:perspective id="perspective3135" inkscape:persp3d-origin="0.5 : 0.33333333 : 1" inkscape:vp_x="0 : 0.5 : 1" inkscape:vp_y="0 : 1000 : 0" inkscape:vp_z="1 : 0.5 : 1" sodipodi:type="inkscape:persp3d"/>
    <inkscape:perspective id="perspective3157" inkscape:persp3d-origin="0.5 : 0.33333333 : 1" inkscape:vp_x="0 : 0.5 : 1" inkscape:vp_y="0 : 1000 : 0" inkscape:vp_z="1 : 0.5 : 1" sodipodi:type="inkscape:persp3d"/>
    <inkscape:perspective id="perspective3957" inkscape:persp3d-origin="0.5 : 0.33333333 : 1" inkscape:vp_x="0 : 0.5 : 1" inkscape:vp_y="0 : 1000 : 0" inkscape:vp_z="1 : 0.5 : 1" sodipodi:type="inkscape:persp3d"/>
    <inkscape:perspective id="perspective3957-1" inkscape:persp3d-origin="0.5 : 0.33333333 : 1" inkscape:vp_x="0 : 0.5 : 1" inkscape:vp_y="0 : 1000 : 0" inkscape:vp_z="1 : 0.5 : 1" sodipodi:type="inkscape:persp3d"/>
    <inkscape:perspective id="perspective3957-5" inkscape:persp3d-origin="0.5 : 0.33333333 : 1" inkscape:vp_x="0 : 0.5 : 1" inkscape:vp_y="0 : 1000 : 0" inkscape:vp_z="1 : 0.5 : 1" sodipodi:type="inkscape:persp3d"/>
    <inkscape:perspective id="perspective3957-7" inkscape:persp3d-origin="0.5 : 0.33333333 : 1" inkscape:vp_x="0 : 0.5 : 1" inkscape:vp_y="0 : 1000 : 0" inkscape:vp_z="1 : 0.5 : 1" sodipodi:type="inkscape:persp3d"/>
    <inkscape:perspective id="perspective4006" inkscape:persp3d-origin="0.5 : 0.33333333 : 1" inkscape:vp_x="0 : 0.5 : 1" inkscape:vp_y="0 : 1000 : 0" inkscape:vp_z="1 : 0.5 : 1" sodipodi:type="inkscape:persp3d"/>
    <inkscape:perspective id="perspective4006-3" inkscape:persp3d-origin="0.5 : 0.33333333 : 1" inkscape:vp_x="0 : 0.5 : 1" inkscape:vp_y="0 : 1000 : 0" inkscape:vp_z="1 : 0.5 : 1" sodipodi:type="inkscape:persp3d"/>
    <inkscape:perspective id="perspective4006-6" inkscape:persp3d-origin="0.5 : 0.33333333 : 1" inkscape:vp_x="0 : 0.5 : 1" inkscape:vp_y="0 : 1000 : 0" inkscape:vp_z="1 : 0.5 : 1" sodipodi:type="inkscape:persp3d"/>
    <inkscape:perspective id="perspective4006-61" inkscape:persp3d-origin="0.5 : 0.33333333 : 1" inkscape:vp_x="0 : 0.5 : 1" inkscape:vp_y="0 : 1000 : 0" inkscape:vp_z="1 : 0.5 : 1" sodipodi:type="inkscape:persp3d"/>
  </g>
  <sodipodi:namedview id="base" width="850px" height="500px" bordercolor="#666666" borderopacity="1.0" gridtolerance="10000" guidetolerance="10" inkscape:current-layer="layer1" inkscape:cx="426.46701" inkscape:cy="225.85604" inkscape:document-units="px" inkscape:grid-points="true" inkscape:pageopacity="0.0" inkscape:pageshadow="2" inkscape:window-height="749" inkscape:window-maximized="1" inkscape:window-width="1024" inkscape:window-x="-4" inkscape:window-y="-4" inkscape:zoom="1" objecttolerance="10" pagecolor="#ffffff" showgrid="true"/>
  <g id="text3896" class="st9" sodipodi:linespacing="125%">
    <text class="st11" transform="translate(328.6 51.6)"><tspan x="0" y="0">RAID 6</tspan></text>
  </g>
  <path id="path3875" class="st2" d="M24,269.9l-1,138.8c0,27,115,27,115,0l1-138.8" sodipodi:nodetypes="cccc"/>
  <path id="path3769-4" class="st4" d="M24.1,270.7h0v40c0,27,115,27,115,0v-40" sodipodi:nodetypes="cc"/>
  <g id="g3871">
    <path id="path3753" class="st5" d="M24,230.7h0v40c0,27,115,27,115,0v-40" sodipodi:nodetypes="cc"/>
    <g id="text3755" class="st9" sodipodi:linespacing="100%">
      <text class="st12" transform="translate(65.7 280.1)"><tspan x="0" y="0">D</tspan></text>
      <text class="st10" transform="translate(88.2 280.1)"><tspan x="0" y="0">p</tspan></text>
    </g>
  </g>
  <g id="g3668">
    <path id="path3761" class="st0" d="M24,190.1h0v40c0,27,115,27,115,0v-40" sodipodi:nodetypes="cc"/>
    <g id="text3763" class="st9" sodipodi:linespacing="100%">
      <text class="st12" transform="translate(63.1 239.6)"><tspan x="0" y="0">C1</tspan></text>
    </g>
  </g>
  <g id="g3839">
    <path id="path3745" class="st7" d="M24,150.7h0v40c0,27,115,27,115,0v-40" sodipodi:nodetypes="cc"/>
    <g id="text3747" class="st9" sodipodi:linespacing="100%">
      <text class="st12" transform="translate(63.5 200.1)"><tspan x="0" y="0">B1</tspan></text>
    </g>
  </g>
  <g id="g3738">
    <path id="path3722" class="st6" d="M24,110.1h0v40c0,27,115,27,115,0v-40" sodipodi:nodetypes="cc"/>
    <g id="text3724" class="st9" sodipodi:linespacing="100%">
      <text class="st12" transform="translate(63.7 159.6)"><tspan x="0" y="0">A1</tspan></text>
    </g>
  </g>
  <path id="path3718" class="st3" d="M139,110.1c0,11-25.7,20-57.5,20s-57.5-9-57.5-20,25.7-20,57.5-20,57.5,9,57.5,20Z" sodipodi:cx="87.5" sodipodi:cy="73.75" sodipodi:rx="57.5" sodipodi:ry="28.75" sodipodi:type="arc"/>
  <g id="text3156" class="st9" sodipodi:linespacing="125%">
    <text class="st8" transform="translate(35.8 472.8)"><tspan x="0" y="0">Disk 0</tspan></text>
  </g>
  <path id="path3892" class="st2" d="M190,269.9l-1,138.8c0,27,115,27,115,0l1-138.8" sodipodi:nodetypes="cccc"/>
  <path id="path3769-4-7" class="st4" d="M190.2,268.9h0v40c0,27,115,27,115,0v-40" sodipodi:nodetypes="cc"/>
  <path id="path3769" class="st5" d="M190,230.7h0v40c0,27,115,27,115,0v-40" sodipodi:nodetypes="cc"/>
  <g id="text3771" class="st9" sodipodi:linespacing="100%">
    <text class="st12" transform="translate(231.7 280.1)"><tspan x="0" y="0">D</tspan></text>
    <text class="st10" transform="translate(254.2 280.1)"><tspan x="0" y="0">q</tspan></text>
  </g>
  <g id="g3676">
    <path id="path3777" class="st0" d="M190,190.1h0v40c0,27,115,27,115,0v-40" sodipodi:nodetypes="cc"/>
    <g id="text3779" class="st9" sodipodi:linespacing="100%">
      <text class="st12" transform="translate(232.2 239.6)"><tspan x="0" y="0">C</tspan></text>
      <text class="st10" transform="translate(253.6 239.6)"><tspan x="0" y="0">p</tspan></text>
    </g>
  </g>
  <g id="g3847">
    <path id="path3785" class="st7" d="M190,150.7h0v40c0,27,115,27,115,0v-40" sodipodi:nodetypes="cc"/>
    <g id="text3787" class="st9" sodipodi:linespacing="100%">
      <text class="st12" transform="translate(229.5 200.1)"><tspan x="0" y="0">B2</tspan></text>
    </g>
  </g>
  <path id="path3793" class="st6" d="M190,110.1h0v40c0,27,115,27,115,0v-40" sodipodi:nodetypes="cc"/>
  <g id="text3795" class="st9" sodipodi:linespacing="100%">
    <text class="st12" transform="translate(229.7 159.6)"><tspan x="0" y="0">A2</tspan></text>
  </g>
  <path id="path3799" class="st3" d="M305,110.1c0,11-25.7,20-57.5,20s-57.5-9-57.5-20,25.7-20,57.5-20,57.5,9,57.5,20Z" sodipodi:cx="87.5" sodipodi:cy="73.75" sodipodi:rx="57.5" sodipodi:ry="28.75" sodipodi:type="arc"/>
  <g id="text3160" class="st9" sodipodi:linespacing="125%">
    <text class="st8" transform="translate(201.8 472.8)"><tspan x="0" y="0">Disk 1</tspan></text>
  </g>
  <path id="path3256" class="st2" d="M359,269.9l-1,138.8c0,27,115,27,115,0l1-138.8" sodipodi:nodetypes="cccc"/>
  <path id="path3769-4-1" class="st4" d="M358.9,269.4h0v40c0,27,115,27,115,0v-40" sodipodi:nodetypes="cc"/>
  <g id="g3718">
    <g id="g3879">
      <path id="path3260" class="st5" d="M359,230.7h0v40c0,27,115,27,115,0v-40" sodipodi:nodetypes="cc"/>
      <g id="text3262" class="st9" sodipodi:linespacing="100%">
        <text class="st12" transform="translate(397.6 280.1)"><tspan x="0" y="0">D1</tspan></text>
      </g>
    </g>
  </g>
  <g id="g3684">
    <path id="path3268" class="st0" d="M359,190.1h0v40c0,27,115,27,115,0v-40" sodipodi:nodetypes="cc"/>
    <g id="text3270" class="st9" sodipodi:linespacing="100%">
      <text class="st12" transform="translate(401.2 239.6)"><tspan x="0" y="0">C</tspan></text>
      <text class="st10" transform="translate(422.6 239.6)"><tspan x="0" y="0">q</tspan></text>
    </g>
  </g>
  <g id="g3855">
    <path id="path3276" class="st7" d="M359,150.7h0v40c0,27,115,27,115,0v-40" sodipodi:nodetypes="cc"/>
    <g id="text3278" class="st9" sodipodi:linespacing="100%">
      <text class="st12" transform="translate(401.6 200.1)"><tspan x="0" y="0">B</tspan></text>
      <text class="st10" transform="translate(422.2 200.1)"><tspan x="0" y="0">p</tspan></text>
    </g>
  </g>
  <g id="g3282">
    <path id="path3284" class="st6" d="M359,110.1h0v40c0,27,115,27,115,0v-40" sodipodi:nodetypes="cc"/>
    <g id="text3286" class="st9" sodipodi:linespacing="100%">
      <text class="st12" transform="translate(398.7 159.6)"><tspan x="0" y="0">A3</tspan></text>
    </g>
  </g>
  <path id="path3290" class="st3" d="M474,110.1c0,11-25.7,20-57.5,20s-57.5-9-57.5-20,25.7-20,57.5-20,57.5,9,57.5,20Z" sodipodi:cx="87.5" sodipodi:cy="73.75" sodipodi:rx="57.5" sodipodi:ry="28.75" sodipodi:type="arc"/>
  <g id="text3292" class="st9" sodipodi:linespacing="125%">
    <text class="st8" transform="translate(370.8 472.8)"><tspan x="0" y="0">Disk 2</tspan></text>
  </g>
  <path id="path3568" class="st2" d="M527,269.9l-1,138.8c0,27,115,27,115,0l1-138.8" sodipodi:nodetypes="cccc"/>
  <path id="path3769-4-2" class="st4" d="M527,270.5h0v40c0,27,115,27,115,0v-40" sodipodi:nodetypes="cc"/>
  <g id="g3887">
    <path id="path3572" class="st5" d="M527,230.7h0v40c0,27,115,27,115,0v-40" sodipodi:nodetypes="cc"/>
    <g id="text3574" class="st9" sodipodi:linespacing="100%">
      <text class="st12" transform="translate(565.6 280.1)"><tspan x="0" y="0">D2</tspan></text>
    </g>
  </g>
  <path id="path3580" class="st0" d="M527,190.1h0v40c0,27,115,27,115,0v-40" sodipodi:nodetypes="cc"/>
  <g id="text3582" class="st9" sodipodi:linespacing="100%">
    <text class="st12" transform="translate(566.1 239.6)"><tspan x="0" y="0">C2</tspan></text>
  </g>
  <g id="g3863">
    <path id="path3588" class="st7" d="M527,150.7h0v40c0,27,115,27,115,0v-40" sodipodi:nodetypes="cc"/>
    <g id="text3590" class="st9" sodipodi:linespacing="100%">
      <text class="st12" transform="translate(569.6 200.1)"><tspan x="0" y="0">B</tspan></text>
      <text class="st10" transform="translate(590.2 200.1)"><tspan x="0" y="0">q</tspan></text>
    </g>
  </g>
  <g id="g3594">
    <path id="path3596" class="st6" d="M527,110.1h0v40c0,27,115,27,115,0v-40" sodipodi:nodetypes="cc"/>
    <g id="text3598" class="st9" sodipodi:linespacing="100%">
      <text class="st12" transform="translate(569.8 159.6)"><tspan x="0" y="0">A</tspan></text>
      <text class="st10" transform="translate(590 159.6)"><tspan x="0" y="0">p</tspan></text>
    </g>
  </g>
  <path id="path3602" class="st3" d="M642,110.1c0,11-25.7,20-57.5,20s-57.5-9-57.5-20,25.7-20,57.5-20,57.5,9,57.5,20Z" sodipodi:cx="87.5" sodipodi:cy="73.75" sodipodi:rx="57.5" sodipodi:ry="28.75" sodipodi:type="arc"/>
  <g id="text3604" class="st9" sodipodi:linespacing="125%">
    <text class="st8" transform="translate(538.8 472.8)"><tspan x="0" y="0">Disk 3</tspan></text>
  </g>
  <path id="path3907" class="st2" d="M695,269.9l-1,138.8c0,27,115,27,115,0l1-138.8" sodipodi:nodetypes="cccc"/>
  <path id="path3769-4-6" class="st4" d="M695.1,268.4h0v40c0,27,115,27,115,0v-40" sodipodi:nodetypes="cc"/>
  <g id="g3909">
    <path id="path3911" class="st5" d="M695,230.7h0v40c0,27,115,27,115,0v-40" sodipodi:nodetypes="cc"/>
    <g id="text3913" class="st9" sodipodi:linespacing="100%">
      <text class="st12" transform="translate(733.6 280.1)"><tspan x="0" y="0">D3</tspan></text>
    </g>
  </g>
  <path id="path3919" class="st0" d="M695,190.1h0v40c0,27,115,27,115,0v-40" sodipodi:nodetypes="cc"/>
  <g id="text3921" class="st9" sodipodi:linespacing="100%">
    <text class="st12" transform="translate(734.1 239.6)"><tspan x="0" y="0">C3</tspan></text>
  </g>
  <g id="g3927">
    <path id="path3929" class="st7" d="M695,150.7h0v40c0,27,115,27,115,0v-40" sodipodi:nodetypes="cc"/>
    <g id="text3931" class="st9" sodipodi:linespacing="100%">
      <text class="st12" transform="translate(734.5 200.1)"><tspan x="0" y="0">B3</tspan></text>
    </g>
  </g>
  <g id="g3937">
    <path id="path3939" class="st6" d="M695,110.1h0v40c0,27,115,27,115,0v-40" sodipodi:nodetypes="cc"/>
    <g id="text3941" class="st9" sodipodi:linespacing="100%">
      <text class="st12" transform="translate(737.8 159.6)"><tspan x="0" y="0">A</tspan></text>
      <text class="st10" transform="translate(758 159.6)"><tspan x="0" y="0">q</tspan></text>
    </g>
  </g>
  <path id="path3947" class="st3" d="M810,110.1c0,11-25.7,20-57.5,20s-57.5-9-57.5-20h0c0-11,25.7-20,57.5-20s57.5,9,57.5,20h0Z" sodipodi:cx="87.5" sodipodi:cy="73.75" sodipodi:rx="57.5" sodipodi:ry="28.75" sodipodi:type="arc"/>
  <g id="text3949" class="st9" sodipodi:linespacing="125%">
    <text class="st8" transform="translate(706.8 472.8)"><tspan x="0" y="0">Disk 4</tspan></text>
  </g>
  <g id="g3989">
    <path id="path3894" class="st1" d="M80,109.9v-40h170v40"/>
    <path id="path3422" class="st1" d="M248,69.9h170v40"/>
    <path id="path3610" class="st1" d="M415,69.9h170v40"/>
    <path id="path3987" class="st1" d="M583,69.9h170v40"/>
  </g>
  <g id="text3771-5" class="st9" sodipodi:linespacing="100%">
    <text class="st12" transform="translate(65.6 320.8)"><tspan x="0" y="0">E</tspan></text>
    <text class="st10" transform="translate(86.1 320.8)"><tspan x="0" y="0">q</tspan></text>
  </g>
  <g id="text3771-5-1" class="st9" sodipodi:linespacing="100%">
    <text class="st12" transform="translate(230.9 319.6)"><tspan x="0" y="0">E1</tspan></text>
  </g>
  <g id="text3771-5-2" class="st9" sodipodi:linespacing="100%">
    <text class="st12" transform="translate(398.2 320)"><tspan x="0" y="0">E2</tspan></text>
  </g>
  <g id="text3771-5-8" class="st9" sodipodi:linespacing="100%">
    <text class="st12" transform="translate(566.1 320.9)"><tspan x="0" y="0">E3</tspan></text>
  </g>
  <g id="text3771-5-89" class="st9" sodipodi:linespacing="100%">
    <text class="st12" transform="translate(735.8 319.9)"><tspan x="0" y="0">E</tspan></text>
    <text class="st10" transform="translate(756.2 319.9)"><tspan x="0" y="0">p</tspan></text>
  </g>
</svg>